<!-- sample rectangle -->
<svg xmlns="http://www.w3.org/2000/svg" height="1em" viewBox="0 0 640 512">
<!--! Font Awesome Pro 6.4.2 by @fontawesome - https://fontawesome.com License - https://fontawesome.com/license (Commercial License) Copyright 2023 Fonticons, Inc. -->
<path d="M166.72 463.04a262.72 262.72 0 00363.52-56.64 253.76 253.76 0 0049.6-150.4v-17.6c-96 139.84-270.72 205.12-412.48 224V242.88a21.76 21.76 0 0122.08-21.76h36.8a21.76 21.76 0 0122.08 21.76v136.96l15.36-3.84a18.24 18.24 0 0014.08-17.6V189.12a21.76 21.76 0 0122.08-21.76h37.12a21.76 21.76 0 0122.08 21.76v157.76l18.24-7.68a17.92 17.92 0 0011.2-16.64V134.72a21.76 21.76 0 0122.08-21.76H448a21.76 21.76 0 0122.08 21.76V289.6A432.32 432.32 0 00560 206.4a36.8 36.8 0 005.76-34.24A260.8 260.8 0 00233.92 14.4a256 256 0 00-160 326.08A281.92 281.92 0 0093.76 384a32 32 0 0032 16l25.92-2.88A17.92 17.92 0 00168 379.2V243.52z"/>
</svg>